<svg width="19" height="21" viewBox="0 0 19 21" fill="none" xmlns="http://www.w3.org/2000/svg">
<path d="M14.5 15.8V13.5C14.5 13.3667 14.45 13.25 14.35 13.15C14.25 13.05 14.1333 13 14 13C13.8667 13 13.75 13.05 13.65 13.15C13.55 13.25 13.5 13.3667 13.5 13.5V15.775C13.5 15.9083 13.525 16.0375 13.575 16.1625C13.625 16.2875 13.7 16.4 13.8 16.5L15.3 18C15.4 18.1 15.5167 18.15 15.65 18.15C15.7833 18.15 15.9 18.1 16 18C16.1 17.9 16.15 17.7833 16.15 17.65C16.15 17.5167 16.1 17.4 16 17.3L14.5 15.8ZM8 0.275C8.31667 0.0916667 8.65 0 9 0C9.35 0 9.68333 0.0916667 10 0.275L17 4.3C17.3167 4.48333 17.5625 4.725 17.7375 5.025C17.9125 5.325 18 5.65833 18 6.025V10.25C17.4333 9.85 16.8125 9.54167 16.1375 9.325C15.4625 9.10833 14.75 9 14 9C13.7167 9 13.4458 9.0125 13.1875 9.0375C12.9292 9.0625 12.6667 9.10833 12.4 9.175L15.1 7.625C15.35 7.49167 15.5042 7.28333 15.5625 7C15.6208 6.71667 15.575 6.45833 15.425 6.225C15.2917 5.99167 15.0958 5.84583 14.8375 5.7875C14.5792 5.72917 14.3333 5.76667 14.1 5.9L9 8.85L3.9 5.9C3.66667 5.76667 3.425 5.72917 3.175 5.7875C2.925 5.84583 2.725 5.99167 2.575 6.225C2.425 6.45833 2.37917 6.71667 2.4375 7C2.49583 7.28333 2.65 7.49167 2.9 7.625L8 10.575V12.4C7.68333 12.9333 7.4375 13.5 7.2625 14.1C7.0875 14.7 7 15.3333 7 16C7 16.7 7.09583 17.3667 7.2875 18C7.47917 18.6333 7.75 19.225 8.1 19.775C8.08333 19.7583 8.06667 19.75 8.05 19.75C8.03333 19.75 8.01667 19.7417 8 19.725L1 15.7C0.683333 15.5167 0.4375 15.275 0.2625 14.975C0.0875 14.675 0 14.3417 0 13.975V6.025C0 5.65833 0.0875 5.325 0.2625 5.025C0.4375 4.725 0.683333 4.48333 1 4.3L8 0.275ZM14 21C12.6167 21 11.4375 20.5125 10.4625 19.5375C9.4875 18.5625 9 17.3833 9 16C9 14.6167 9.4875 13.4375 10.4625 12.4625C11.4375 11.4875 12.6167 11 14 11C15.3833 11 16.5625 11.4875 17.5375 12.4625C18.5125 13.4375 19 14.6167 19 16C19 17.3833 18.5125 18.5625 17.5375 19.5375C16.5625 20.5125 15.3833 21 14 21Z" fill="#6E8BB7"/>
</svg>
