<svg width="16" height="16" viewBox="0 0 16 16" fill="none" xmlns="http://www.w3.org/2000/svg">
<path d="M3.99998 12.6667C3.99998 13.4 4.59998 14 5.33331 14H10.6666C11.4 14 12 13.4 12 12.6667V6C12 5.26667 11.4 4.66667 10.6666 4.66667H5.33331C4.59998 4.66667 3.99998 5.26667 3.99998 6V12.6667ZM12 2.66667H10.3333L9.85998 2.19333C9.73998 2.07333 9.56665 2 9.39331 2H6.60665C6.43331 2 6.25998 2.07333 6.13998 2.19333L5.66665 2.66667H3.99998C3.63331 2.66667 3.33331 2.96667 3.33331 3.33333C3.33331 3.7 3.63331 4 3.99998 4H12C12.3666 4 12.6666 3.7 12.6666 3.33333C12.6666 2.96667 12.3666 2.66667 12 2.66667Z" fill="#F76659"/>
</svg>
