<svg width="16" height="16" viewBox="0 0 16 16" fill="none" xmlns="http://www.w3.org/2000/svg">
<g clip-path="url(#clip0_8_477)">
<path d="M12 6.66665L9.33334 3.99998M1.66666 14.3333L3.9229 14.0826C4.19856 14.052 4.33639 14.0367 4.46522 13.995C4.57952 13.958 4.68829 13.9057 4.78858 13.8396C4.90163 13.765 4.99969 13.6669 5.19581 13.4708L14 4.66665C14.7364 3.93027 14.7364 2.73636 14 1.99998C13.2636 1.2636 12.0697 1.2636 11.3333 1.99998L2.52914 10.8042C2.33302 11.0003 2.23496 11.0983 2.16041 11.2114C2.09428 11.3117 2.042 11.4205 2.005 11.5347C1.96329 11.6636 1.94798 11.8014 1.91735 12.0771L1.66666 14.3333Z" stroke="#36AD49" stroke-width="2" stroke-linecap="round" stroke-linejoin="round"/>
</g>
<defs>
<clipPath id="clip0_8_477">
<rect width="16" height="16" fill="white"/>
</clipPath>
</defs>
</svg>
