<svg width="20" height="21" viewBox="0 0 20 21" fill="none" xmlns="http://www.w3.org/2000/svg">
<mask id="mask0_8_226" style="mask-type:alpha" maskUnits="userSpaceOnUse" x="-2" y="-2" width="24" height="24">
<rect x="-2" y="-2" width="24" height="24" fill="#D9D9D9"/>
</mask>
<g mask="url(#mask0_8_226)">
<path d="M15.5 15.8V13.5C15.5 13.3667 15.45 13.25 15.35 13.15C15.25 13.05 15.1333 13 15 13C14.8667 13 14.75 13.05 14.65 13.15C14.55 13.25 14.5 13.3667 14.5 13.5V15.775C14.5 15.9083 14.525 16.0375 14.575 16.1625C14.625 16.2875 14.7 16.4 14.8 16.5L16.3 18C16.4 18.1 16.5167 18.15 16.65 18.15C16.7833 18.15 16.9 18.1 17 18C17.1 17.9 17.15 17.7833 17.15 17.65C17.15 17.5167 17.1 17.4 17 17.3L15.5 15.8ZM9 0.275C9.31667 0.0916667 9.65 0 10 0C10.35 0 10.6833 0.0916667 11 0.275L18 4.3C18.3167 4.48333 18.5625 4.725 18.7375 5.025C18.9125 5.325 19 5.65833 19 6.025V10.25C18.4333 9.85 17.8125 9.54167 17.1375 9.325C16.4625 9.10833 15.75 9 15 9C14.7167 9 14.4458 9.0125 14.1875 9.0375C13.9292 9.0625 13.6667 9.10833 13.4 9.175L16.1 7.625C16.35 7.49167 16.5042 7.28333 16.5625 7C16.6208 6.71667 16.575 6.45833 16.425 6.225C16.2917 5.99167 16.0958 5.84583 15.8375 5.7875C15.5792 5.72917 15.3333 5.76667 15.1 5.9L10 8.85L4.9 5.9C4.66667 5.76667 4.425 5.72917 4.175 5.7875C3.925 5.84583 3.725 5.99167 3.575 6.225C3.425 6.45833 3.37917 6.71667 3.4375 7C3.49583 7.28333 3.65 7.49167 3.9 7.625L9 10.575V12.4C8.68333 12.9333 8.4375 13.5 8.2625 14.1C8.0875 14.7 8 15.3333 8 16C8 16.7 8.09583 17.3667 8.2875 18C8.47917 18.6333 8.75 19.225 9.1 19.775C9.08333 19.7583 9.06667 19.75 9.05 19.75C9.03333 19.75 9.01667 19.7417 9 19.725L2 15.7C1.68333 15.5167 1.4375 15.275 1.2625 14.975C1.0875 14.675 1 14.3417 1 13.975V6.025C1 5.65833 1.0875 5.325 1.2625 5.025C1.4375 4.725 1.68333 4.48333 2 4.3L9 0.275ZM15 21C13.6167 21 12.4375 20.5125 11.4625 19.5375C10.4875 18.5625 10 17.3833 10 16C10 14.6167 10.4875 13.4375 11.4625 12.4625C12.4375 11.4875 13.6167 11 15 11C16.3833 11 17.5625 11.4875 18.5375 12.4625C19.5125 13.4375 20 14.6167 20 16C20 17.3833 19.5125 18.5625 18.5375 19.5375C17.5625 20.5125 16.3833 21 15 21Z" fill="#6E8BB7"/>
</g>
</svg>
