<svg width="24" height="24" viewBox="0 0 24 24" fill="none" xmlns="http://www.w3.org/2000/svg">
<path fill-rule="evenodd" clip-rule="evenodd" d="M17.707 17.707C17.5195 17.8945 17.2652 17.9998 17 17.9998C16.7349 17.9998 16.4806 17.8945 16.293 17.707L11.293 12.707C11.1056 12.5195 11.0002 12.2652 11.0002 12C11.0002 11.7349 11.1056 11.4805 11.293 11.293L16.293 6.29302C16.3853 6.19751 16.4956 6.12133 16.6176 6.06892C16.7396 6.01651 16.8709 5.98892 17.0036 5.98777C17.1364 5.98662 17.2681 6.01192 17.391 6.0622C17.5139 6.11248 17.6255 6.18673 17.7194 6.28062C17.8133 6.37452 17.8876 6.48617 17.9379 6.60907C17.9881 6.73196 18.0134 6.86364 18.0123 6.99642C18.0111 7.1292 17.9835 7.26042 17.9311 7.38242C17.8787 7.50443 17.8025 7.61477 17.707 7.70702L13.414 12L17.707 16.293C17.8945 16.4805 17.9998 16.7349 17.9998 17C17.9998 17.2652 17.8945 17.5195 17.707 17.707ZM11.707 17.707C11.5195 17.8945 11.2652 17.9998 11 17.9998C10.7349 17.9998 10.4806 17.8945 10.293 17.707L5.29303 12.707C5.10556 12.5195 5.00024 12.2652 5.00024 12C5.00024 11.7349 5.10556 11.4805 5.29303 11.293L10.293 6.29302C10.4816 6.11086 10.7342 6.01007 10.9964 6.01235C11.2586 6.01462 11.5094 6.11979 11.6948 6.3052C11.8803 6.49061 11.9854 6.74142 11.9877 7.00362C11.99 7.26582 11.8892 7.51842 11.707 7.70702L7.41403 12L11.707 16.293C11.8945 16.4805 11.9998 16.7349 11.9998 17C11.9998 17.2652 11.8945 17.5195 11.707 17.707Z" fill="#1A2024"/>
</svg>
